<svg xmlns="http://www.w3.org/2000/svg" width="64" height="64" viewBox="0 0 64 64">
  <defs>
    <linearGradient id="bg" x1="12%" y1="14%" x2="88%" y2="86%">
      <stop offset="0%" stop-color="#22d3ee" />
      <stop offset="100%" stop-color="#0ea5e9" />
    </linearGradient>
    <linearGradient id="plane" x1="0%" y1="0%" x2="100%" y2="100%">
      <stop offset="0%" stop-color="#f8fafc" />
      <stop offset="100%" stop-color="#e2e8f0" />
    </linearGradient>
  </defs>
  <rect x="4" y="4" width="56" height="56" rx="14" fill="url(#bg)" />
  <path fill="url(#plane)"
    d="M44.5 19.5c-1.2 0-2.4.4-3.3 1.2l-7.2 5.9-10.7-3.3c-.6-.2-1.3 0-1.7.4l-1.7 1.7c-.6.6-.4 1.7.4 2l9.7 4-5.7 4.5-4.4-1.1c-.5-.1-1 .1-1.3.4l-1.2 1.2c-.5.5-.3 1.4.4 1.6l5.3 1.6 1.6 5.3c.2.7 1.1.9 1.6.4l1.2-1.2c.3-.3.5-.8.4-1.3l-1.1-4.4 4.5-5.7 3.9 9.7c.3.7 1.4.9 2 .3l1.7-1.7c.4-.4.6-1 .4-1.6l-3.2-10.8 5.8-7.2c1.8-2.2 1.5-5.4-.7-7.3-.9-.9-2.1-1.4-3.3-1.4z" />
  <path d="M20.5 45.5c4.9 4.9 12.8 5.3 18.3 1.1" fill="none" stroke="#f1f5f9" stroke-width="2.5" stroke-linecap="round"
    opacity="0.8" />
</svg>